<svg viewBox="0 0 900 500" xmlns="http://www.w3.org/2000/svg" font-family="'Segoe UI', system-ui, sans-serif">
  <defs>
    <linearGradient id="bgGrad" x1="0%" y1="0%" x2="100%" y2="100%">
      <stop offset="0%" style="stop-color:#0a0e1a;stop-opacity:1" />
      <stop offset="100%" style="stop-color:#0f2040;stop-opacity:1" />
    </linearGradient>
    <linearGradient id="cardGrad" x1="0%" y1="0%" x2="0%" y2="100%">
      <stop offset="0%" style="stop-color:#4f46e5;stop-opacity:0.35" />
      <stop offset="100%" style="stop-color:#0a0e1a;stop-opacity:0.9" />
    </linearGradient>
    <linearGradient id="accentGrad" x1="0%" y1="0%" x2="100%" y2="0%">
      <stop offset="0%" style="stop-color:#6366f1;stop-opacity:1" />
      <stop offset="100%" style="stop-color:#06b6d4;stop-opacity:1" />
    </linearGradient>
  </defs>

  <rect width="900" height="500" fill="url(#bgGrad)" />
  <circle cx="800" cy="90" r="220" fill="#4f46e5" opacity="0.09" />
  <circle cx="80" cy="460" r="150" fill="#7c3aed" opacity="0.1" />

  <text x="60" y="80" font-size="13" font-weight="600" fill="#a5b4fc" letter-spacing="3">CLINICAL INFORMATION SYSTEM</text>
  <text x="60" y="130" font-size="34" font-weight="800" fill="white">Clinical.WebApp</text>
  <text x="60" y="165" font-size="20" font-weight="400" fill="#c7d2fe">The Clinician&apos;s Digital Command Centre:</text>
  <text x="60" y="193" font-size="20" font-weight="400" fill="#c7d2fe">90+ Components, Full Care Episode</text>

  <rect x="60" y="225" width="140" height="70" rx="10" fill="url(#cardGrad)" stroke="url(#accentGrad)" stroke-width="1.5" />
  <text x="130" y="250" font-size="26" font-weight="800" fill="#a5b4fc" text-anchor="middle">90+</text>
  <text x="130" y="270" font-size="12" fill="#c7d2fe" text-anchor="middle">Razor</text>
  <text x="130" y="287" font-size="12" fill="#c7d2fe" text-anchor="middle">Components</text>

  <rect x="215" y="225" width="140" height="70" rx="10" fill="url(#cardGrad)" stroke="url(#accentGrad)" stroke-width="1.5" />
  <text x="285" y="248" font-size="17" font-weight="800" fill="#a5b4fc" text-anchor="middle">BCMA</text>
  <text x="285" y="266" font-size="16" font-weight="800" fill="#a5b4fc" text-anchor="middle">Verified</text>
  <text x="285" y="287" font-size="11" fill="#c7d2fe" text-anchor="middle">Med Administration</text>

  <rect x="370" y="225" width="140" height="70" rx="10" fill="url(#cardGrad)" stroke="url(#accentGrad)" stroke-width="1.5" />
  <text x="440" y="248" font-size="17" font-weight="800" fill="#a5b4fc" text-anchor="middle">DICOM</text>
  <text x="440" y="266" font-size="16" font-weight="800" fill="#a5b4fc" text-anchor="middle">Viewer</text>
  <text x="440" y="287" font-size="11" fill="#c7d2fe" text-anchor="middle">+ AI Analysis</text>

  <rect x="525" y="225" width="140" height="70" rx="10" fill="url(#cardGrad)" stroke="url(#accentGrad)" stroke-width="1.5" />
  <text x="595" y="248" font-size="17" font-weight="800" fill="#a5b4fc" text-anchor="middle">LOINC</text>
  <text x="595" y="266" font-size="17" font-weight="800" fill="#a5b4fc" text-anchor="middle">Mapped</text>
  <text x="595" y="287" font-size="11" fill="#c7d2fe" text-anchor="middle">HL7 FHIR Ready</text>

  <rect x="60" y="320" width="185" height="32" rx="16" fill="#1e1b4b" />
  <text x="152" y="341" font-size="12" fill="#a5b4fc" text-anchor="middle">🏥 Triage &amp; Admission</text>

  <rect x="257" y="320" width="185" height="32" rx="16" fill="#1e1b4b" />
  <text x="349" y="341" font-size="12" fill="#a5b4fc" text-anchor="middle">💊 Prescribing &amp; MAR</text>

  <rect x="454" y="320" width="195" height="32" rx="16" fill="#1e1b4b" />
  <text x="551" y="341" font-size="12" fill="#a5b4fc" text-anchor="middle">🔬 Lab &amp; Radiology</text>

  <rect x="60" y="365" width="200" height="32" rx="16" fill="#1e1b4b" />
  <text x="160" y="386" font-size="12" fill="#a5b4fc" text-anchor="middle">🧠 Clinical AI Tools</text>

  <rect x="272" y="365" width="205" height="32" rx="16" fill="#1e1b4b" />
  <text x="374" y="386" font-size="12" fill="#a5b4fc" text-anchor="middle">🛡️ HIPAA + WCAG 2.1</text>

  <text x="60" y="460" font-size="13" fill="#a5b4fc" opacity="0.8">kapambwe.github.io/ClinicalWebApp</text>
  <text x="60" y="485" font-size="12" fill="#c7d2fe" opacity="0.6">NeoSoft Technologies · Zambia Digital Health Stack</text>
</svg>
