<svg viewBox="0 0 900 500" xmlns="http://www.w3.org/2000/svg" font-family="'Segoe UI', system-ui, sans-serif">
  <defs>
    <linearGradient id="bgGrad" x1="0%" y1="0%" x2="100%" y2="100%">
      <stop offset="0%" style="stop-color:#0f172a;stop-opacity:1" />
      <stop offset="100%" style="stop-color:#1a2e4a;stop-opacity:1" />
    </linearGradient>
    <linearGradient id="cardGrad" x1="0%" y1="0%" x2="0%" y2="100%">
      <stop offset="0%" style="stop-color:#1e293b;stop-opacity:1" />
      <stop offset="100%" style="stop-color:#0f172a;stop-opacity:1" />
    </linearGradient>
    <linearGradient id="orangeGrad" x1="0%" y1="0%" x2="100%" y2="0%">
      <stop offset="0%" style="stop-color:#f97316;stop-opacity:1" />
      <stop offset="100%" style="stop-color:#ea580c;stop-opacity:1" />
    </linearGradient>
    <linearGradient id="blueGrad" x1="0%" y1="0%" x2="100%" y2="0%">
      <stop offset="0%" style="stop-color:#3b82f6;stop-opacity:1" />
      <stop offset="100%" style="stop-color:#2563eb;stop-opacity:1" />
    </linearGradient>
    <linearGradient id="greenGrad" x1="0%" y1="0%" x2="100%" y2="0%">
      <stop offset="0%" style="stop-color:#10b981;stop-opacity:1" />
      <stop offset="100%" style="stop-color:#059669;stop-opacity:1" />
    </linearGradient>
    <linearGradient id="purpleGrad" x1="0%" y1="0%" x2="100%" y2="0%">
      <stop offset="0%" style="stop-color:#8b5cf6;stop-opacity:1" />
      <stop offset="100%" style="stop-color:#7c3aed;stop-opacity:1" />
    </linearGradient>
    <linearGradient id="progressGrad" x1="0%" y1="0%" x2="100%" y2="0%">
      <stop offset="0%" style="stop-color:#10b981;stop-opacity:1" />
      <stop offset="100%" style="stop-color:#3b82f6;stop-opacity:1" />
    </linearGradient>
  </defs>

  <!-- Background -->
  <rect width="900" height="500" fill="url(#bgGrad)" />

  <!-- Subtle grid overlay -->
  <g opacity="0.04">
    <line x1="0" y1="62.5" x2="900" y2="62.5" stroke="white" stroke-width="0.5"/>
    <line x1="0" y1="125" x2="900" y2="125" stroke="white" stroke-width="0.5"/>
    <line x1="0" y1="187.5" x2="900" y2="187.5" stroke="white" stroke-width="0.5"/>
    <line x1="0" y1="250" x2="900" y2="250" stroke="white" stroke-width="0.5"/>
    <line x1="0" y1="312.5" x2="900" y2="312.5" stroke="white" stroke-width="0.5"/>
    <line x1="0" y1="375" x2="900" y2="375" stroke="white" stroke-width="0.5"/>
    <line x1="0" y1="437.5" x2="900" y2="437.5" stroke="white" stroke-width="0.5"/>
    <line x1="112.5" y1="0" x2="112.5" y2="500" stroke="white" stroke-width="0.5"/>
    <line x1="225" y1="0" x2="225" y2="500" stroke="white" stroke-width="0.5"/>
    <line x1="337.5" y1="0" x2="337.5" y2="500" stroke="white" stroke-width="0.5"/>
    <line x1="450" y1="0" x2="450" y2="500" stroke="white" stroke-width="0.5"/>
    <line x1="562.5" y1="0" x2="562.5" y2="500" stroke="white" stroke-width="0.5"/>
    <line x1="675" y1="0" x2="675" y2="500" stroke="white" stroke-width="0.5"/>
    <line x1="787.5" y1="0" x2="787.5" y2="500" stroke="white" stroke-width="0.5"/>
  </g>

  <!-- Ambient glow orbs -->
  <circle cx="150" cy="150" r="130" fill="#f97316" opacity="0.05"/>
  <circle cx="760" cy="350" r="160" fill="#3b82f6" opacity="0.06"/>
  <circle cx="500" cy="480" r="100" fill="#8b5cf6" opacity="0.05"/>

  <!-- LEFT PANEL: Title Block -->
  <text x="60" y="72" fill="#f97316" font-size="11" font-weight="600" letter-spacing="2" opacity="0.9">GOVERNMENT CONTRACT MANAGEMENT</text>
  <text x="60" y="115" fill="white" font-size="32" font-weight="700" letter-spacing="-0.5">Contractor Web App</text>
  <text x="60" y="143" fill="#94a3b8" font-size="14">End-to-end digital platform for public</text>
  <text x="60" y="162" fill="#94a3b8" font-size="14">infrastructure contracts &amp; PPP projects</text>

  <!-- Zambia flag accent -->
  <rect x="60" y="183" width="3" height="36" fill="#f97316" rx="1.5"/>
  <text x="72" y="198" fill="#cbd5e1" font-size="12">🇿🇲 National Road Development Agency</text>
  <text x="72" y="215" fill="#cbd5e1" font-size="12">🏛 Ministry of Infrastructure</text>

  <!-- KPI row -->
  <!-- KPI 1 -->
  <rect x="60" y="248" width="110" height="64" rx="10" fill="#1e293b" stroke="#334155" stroke-width="1"/>
  <text x="115" y="271" fill="#f97316" font-size="20" font-weight="700" text-anchor="middle">$1.2B</text>
  <text x="115" y="290" fill="#64748b" font-size="10" text-anchor="middle">PPP Contract Value</text>
  <text x="115" y="304" fill="#64748b" font-size="9" text-anchor="middle">Kafue Gorge Hydro</text>

  <!-- KPI 2 -->
  <rect x="182" y="248" width="110" height="64" rx="10" fill="#1e293b" stroke="#334155" stroke-width="1"/>
  <text x="237" y="271" fill="#10b981" font-size="20" font-weight="700" text-anchor="middle">$3.0M+</text>
  <text x="237" y="290" fill="#64748b" font-size="10" text-anchor="middle">Contracts Managed</text>
  <text x="237" y="304" fill="#64748b" font-size="9" text-anchor="middle">Regular projects</text>

  <!-- KPI 3 -->
  <rect x="304" y="248" width="110" height="64" rx="10" fill="#1e293b" stroke="#334155" stroke-width="1"/>
  <text x="359" y="271" fill="#3b82f6" font-size="20" font-weight="700" text-anchor="middle">30yr</text>
  <text x="359" y="290" fill="#64748b" font-size="10" text-anchor="middle">Concession Period</text>
  <text x="359" y="304" fill="#64748b" font-size="9" text-anchor="middle">BOT/BOOT/DBFO</text>

  <!-- Workflow pipeline -->
  <text x="60" y="347" fill="#94a3b8" font-size="11" font-weight="600" letter-spacing="1">CONTRACT LIFECYCLE</text>
  <!-- Steps -->
  <rect x="60" y="358" width="74" height="28" rx="6" fill="url(#orangeGrad)"/>
  <text x="97" y="376" fill="white" font-size="10" font-weight="600" text-anchor="middle">Award</text>
  <text x="140" y="376" fill="#475569" font-size="14" font-weight="300">›</text>
  <rect x="148" y="358" width="74" height="28" rx="6" fill="#1e293b" stroke="#3b82f6" stroke-width="1"/>
  <text x="185" y="376" fill="#3b82f6" font-size="10" font-weight="600" text-anchor="middle">Contract</text>
  <text x="228" y="376" fill="#475569" font-size="14" font-weight="300">›</text>
  <rect x="236" y="358" width="74" height="28" rx="6" fill="#1e293b" stroke="#10b981" stroke-width="1"/>
  <text x="273" y="376" fill="#10b981" font-size="10" font-weight="600" text-anchor="middle">Mobilize</text>
  <text x="316" y="376" fill="#475569" font-size="14" font-weight="300">›</text>
  <rect x="324" y="358" width="74" height="28" rx="6" fill="#1e293b" stroke="#8b5cf6" stroke-width="1"/>
  <text x="361" y="376" fill="#8b5cf6" font-size="10" font-weight="600" text-anchor="middle">Execute</text>

  <!-- Module badges row -->
  <text x="60" y="416" fill="#94a3b8" font-size="11" font-weight="600" letter-spacing="1">KEY MODULES</text>
  <rect x="60" y="424" width="88" height="22" rx="5" fill="#1e3a2f" stroke="#10b981" stroke-width="1"/>
  <text x="104" y="439" fill="#10b981" font-size="10" text-anchor="middle">Payments</text>
  <rect x="155" y="424" width="88" height="22" rx="5" fill="#1e2a4a" stroke="#3b82f6" stroke-width="1"/>
  <text x="199" y="439" fill="#3b82f6" font-size="10" text-anchor="middle">Milestones</text>
  <rect x="250" y="424" width="88" height="22" rx="5" fill="#2a1e3f" stroke="#8b5cf6" stroke-width="1"/>
  <text x="294" y="439" fill="#8b5cf6" font-size="10" text-anchor="middle">Inspections</text>
  <rect x="345" y="424" width="88" height="22" rx="5" fill="#2a1e10" stroke="#f97316" stroke-width="1"/>
  <text x="389" y="439" fill="#f97316" font-size="10" text-anchor="middle">Certifications</text>

  <rect x="60" y="452" width="88" height="22" rx="5" fill="#1e293b" stroke="#64748b" stroke-width="1"/>
  <text x="104" y="467" fill="#94a3b8" font-size="10" text-anchor="middle">Documents</text>
  <rect x="155" y="452" width="88" height="22" rx="5" fill="#1e293b" stroke="#64748b" stroke-width="1"/>
  <text x="199" y="467" fill="#94a3b8" font-size="10" text-anchor="middle">PPP Projects</text>
  <rect x="250" y="452" width="88" height="22" rx="5" fill="#1e293b" stroke="#64748b" stroke-width="1"/>
  <text x="294" y="467" fill="#94a3b8" font-size="10" text-anchor="middle">Subcontractors</text>
  <rect x="345" y="452" width="88" height="22" rx="5" fill="#1e293b" stroke="#64748b" stroke-width="1"/>
  <text x="389" y="467" fill="#94a3b8" font-size="10" text-anchor="middle">Notifications</text>

  <!-- DIVIDER -->
  <line x1="470" y1="40" x2="470" y2="470" stroke="#1e293b" stroke-width="1.5"/>

  <!-- RIGHT PANEL: Project Dashboard -->
  <text x="496" y="72" fill="#94a3b8" font-size="11" font-weight="600" letter-spacing="2">ACTIVE PROJECT DASHBOARD</text>

  <!-- Project card 1 -->
  <rect x="496" y="84" width="378" height="82" rx="10" fill="url(#cardGrad)" stroke="#1e3a2f" stroke-width="1"/>
  <text x="512" y="107" fill="#10b981" font-size="11" font-weight="700">Urban Road Rehabilitation Project</text>
  <text x="512" y="124" fill="#64748b" font-size="10">Ministry of Infrastructure  ·  Lusaka Central</text>
  <!-- progress bar -->
  <rect x="512" y="134" width="250" height="6" rx="3" fill="#1e293b"/>
  <rect x="512" y="134" width="162" height="6" rx="3" fill="url(#progressGrad)"/>
  <text x="768" y="142" fill="#10b981" font-size="10" font-weight="700" text-anchor="end">65%</text>
  <!-- value -->
  <text x="512" y="158" fill="#94a3b8" font-size="10">Contract: </text>
  <text x="562" y="158" fill="white" font-size="10" font-weight="600">K2,500,000</text>
  <text x="644" y="158" fill="#94a3b8" font-size="10">Status: </text>
  <text x="681" y="158" fill="#f97316" font-size="10" font-weight="600">Ongoing</text>

  <!-- Project card 2 -->
  <rect x="496" y="178" width="378" height="82" rx="10" fill="url(#cardGrad)" stroke="#1e2a4a" stroke-width="1"/>
  <text x="512" y="201" fill="#3b82f6" font-size="11" font-weight="700">School Building Construction</text>
  <text x="512" y="218" fill="#64748b" font-size="10">Ministry of Education  ·  Matero Constituency</text>
  <!-- progress bar -->
  <rect x="512" y="228" width="250" height="6" rx="3" fill="#1e293b"/>
  <rect x="512" y="228" width="137" height="6" rx="3" fill="url(#blueGrad)"/>
  <text x="768" y="236" fill="#3b82f6" font-size="10" font-weight="700" text-anchor="end">55%</text>
  <text x="512" y="252" fill="#94a3b8" font-size="10">Contract: </text>
  <text x="562" y="252" fill="white" font-size="10" font-weight="600">K3,200,000</text>
  <text x="644" y="252" fill="#94a3b8" font-size="10">Status: </text>
  <text x="681" y="252" fill="#f97316" font-size="10" font-weight="600">Ongoing</text>

  <!-- PPP Panel -->
  <rect x="496" y="272" width="378" height="114" rx="10" fill="#110a2a" stroke="#4c1d95" stroke-width="1"/>
  <text x="512" y="294" fill="#8b5cf6" font-size="11" font-weight="700">PPP PROJECT PORTFOLIO</text>
  <!-- 3 PPP items -->
  <text x="512" y="314" fill="#c4b5fd" font-size="10">Lusaka-Ndola Toll Road (BOT)</text>
  <text x="780" y="314" fill="#10b981" font-size="10" font-weight="700" text-anchor="end">$850M</text>
  <rect x="512" y="320" width="255" height="3" rx="1.5" fill="#2d1b69"/>
  <rect x="512" y="320" width="178" height="3" rx="1.5" fill="#8b5cf6" opacity="0.6"/>

  <text x="512" y="338" fill="#c4b5fd" font-size="10">Kafue Gorge Hydro Extension (BOOT)</text>
  <text x="780" y="338" fill="#10b981" font-size="10" font-weight="700" text-anchor="end">$1.2B</text>
  <rect x="512" y="344" width="255" height="3" rx="1.5" fill="#2d1b69"/>
  <rect x="512" y="344" width="90" height="3" rx="1.5" fill="#3b82f6" opacity="0.6"/>

  <text x="512" y="362" fill="#c4b5fd" font-size="10">Kenneth Kaunda Airport Expansion (BOT)</text>
  <text x="780" y="362" fill="#10b981" font-size="10" font-weight="700" text-anchor="end">$450M</text>
  <rect x="512" y="368" width="255" height="3" rx="1.5" fill="#2d1b69"/>
  <rect x="512" y="368" width="178" height="3" rx="1.5" fill="#f97316" opacity="0.6"/>

  <text x="512" y="381" fill="#64748b" font-size="9">Financing: AfDB · World Bank IFC · China Development Bank · Bilateral agencies</text>

  <!-- Payment certification flow -->
  <rect x="496" y="398" width="378" height="72" rx="10" fill="url(#cardGrad)" stroke="#334155" stroke-width="1"/>
  <text x="512" y="418" fill="#94a3b8" font-size="10" font-weight="600" letter-spacing="1">PAYMENT CERTIFICATION WORKFLOW</text>
  <!-- Steps row -->
  <rect x="512" y="426" width="60" height="20" rx="4" fill="#f97316" opacity="0.15" stroke="#f97316" stroke-width="1"/>
  <text x="542" y="440" fill="#f97316" font-size="9" text-anchor="middle">Claim</text>
  <text x="578" y="440" fill="#475569" font-size="12">›</text>
  <rect x="585" y="426" width="60" height="20" rx="4" fill="#3b82f6" opacity="0.15" stroke="#3b82f6" stroke-width="1"/>
  <text x="615" y="440" fill="#3b82f6" font-size="9" text-anchor="middle">Verify</text>
  <text x="651" y="440" fill="#475569" font-size="12">›</text>
  <rect x="658" y="426" width="60" height="20" rx="4" fill="#10b981" opacity="0.15" stroke="#10b981" stroke-width="1"/>
  <text x="688" y="440" fill="#10b981" font-size="9" text-anchor="middle">Certify</text>
  <text x="724" y="440" fill="#475569" font-size="12">›</text>
  <rect x="731" y="426" width="60" height="20" rx="4" fill="#10b981" opacity="0.3" stroke="#10b981" stroke-width="1"/>
  <text x="761" y="440" fill="#10b981" font-size="9" text-anchor="middle">Pay</text>

  <text x="512" y="461" fill="#64748b" font-size="9">Paid: K240,000  ·  K450,000  ·  K380,000  |  Pending: K350,000 (verification)</text>

  <!-- Bottom URL label -->
  <text x="496" y="488" fill="#3b82f6" font-size="10">kapambwe.github.io/ContractorWebApp</text>
</svg>
